<svg xmlns="http://www.w3.org/2000/svg" version="1.1" xmlns:xlink="http://www.w3.org/1999/xlink" xmlns:svgjs="http://svgjs.com/svgjs" width="1400" height="787.5" preserveAspectRatio="none" viewBox="0 0 1400 787.5"><g mask="url(&quot;#SvgjsMask1033&quot;)" fill="none"><rect width="1400" height="787.5" x="0" y="0" fill="rgba(20, 20, 20, 1)"></rect><path d="M848.25 669.19L878.01 669.19L878.01 731.04L848.25 731.04z" fill="rgba(251, 175, 0, 1)"></path><path d="M1132.96 533.09L1164.78 533.09L1164.78 564.91L1132.96 564.91z" stroke="rgba(207, 93, 93, 1)"></path><path d="M801.42 261.71 a65.6 65.6 0 1 0 131.2 0 a65.6 65.6 0 1 0 -131.2 0z" stroke="rgba(160, 108, 213, 1)"></path><path d="M779.72 533.47L800.36 533.47L800.36 554.11L779.72 554.11z" fill="rgba(160, 108, 213, 1)"></path><path d="M602.12 416.78L669.18 416.78L669.18 432.82L602.12 432.82z" fill="rgba(251, 175, 0, 1)"></path><path d="M899.23 376.01L954.87 376.01L954.87 431.65L899.23 431.65z" stroke="rgba(251, 175, 0, 1)"></path><path d="M697.36 624.92a71.81 71.81 0 1 0-107.57 95.17z" fill="rgba(160, 108, 213, 1)"></path><path d="M1037.81 10.38L1089.49 10.38L1089.49 62.06L1037.81 62.06z" fill="rgba(207, 93, 93, 1)"></path><path d="M1334.01 23.47L1339.39 23.47L1339.39 28.85L1334.01 28.85z" stroke="rgba(207, 93, 93, 1)"></path><path d="M1205.43 323.8a58.35 58.35 0 1 0 96.71-65.32z" stroke="rgba(207, 93, 93, 1)"></path><path d="M773.59 67.96 a20.29 20.29 0 1 0 40.58 0 a20.29 20.29 0 1 0 -40.58 0z" fill="rgba(251, 175, 0, 1)"></path><path d="M48.71 638.7 a46.9 46.9 0 1 0 93.8 0 a46.9 46.9 0 1 0 -93.8 0z" fill="rgba(160, 108, 213, 1)"></path><path d="M947.28 228.06L950.22 228.06L950.22 231L947.28 231z" stroke="rgba(207, 93, 93, 1)"></path><path d="M1190.71 469.62L1263.3 469.62L1263.3 542.21L1190.71 542.21z" stroke="rgba(207, 93, 93, 1)"></path><path d="M1304.13 317.84a29.91 29.91 0 1 0-41.99-42.61z" fill="rgba(251, 175, 0, 1)"></path><path d="M1323.94 147.71 a46.65 46.65 0 1 0 93.3 0 a46.65 46.65 0 1 0 -93.3 0z" stroke="rgba(207, 93, 93, 1)"></path><path d="M593.61 785.68a45.5 45.5 0 1 0-43.57-79.89z" stroke="rgba(251, 175, 0, 1)"></path><path d="M1284.93 31.47L1359.82 31.47L1359.82 106.36L1284.93 106.36z" stroke="rgba(207, 93, 93, 1)"></path><path d="M398.38 289.8 a15.75 15.75 0 1 0 31.5 0 a15.75 15.75 0 1 0 -31.5 0z" stroke="rgba(251, 175, 0, 1)"></path><path d="M16.36 517.54L43.32 517.54L43.32 575.64L16.36 575.64z" stroke="rgba(160, 108, 213, 1)"></path><path d="M1190.25 30.43L1250.56 30.43L1250.56 90.74L1190.25 90.74z" stroke="rgba(207, 93, 93, 1)"></path><path d="M1185.6 506 a57.45 57.45 0 1 0 114.9 0 a57.45 57.45 0 1 0 -114.9 0z" fill="rgba(207, 93, 93, 1)"></path><path d="M289.24 257.59 a8.75 8.75 0 1 0 17.5 0 a8.75 8.75 0 1 0 -17.5 0z" stroke="rgba(207, 93, 93, 1)"></path></g><defs><mask id="SvgjsMask1033"><rect width="1400" height="787.5" fill="#ffffff"></rect></mask></defs></svg>