<svg xmlns="http://www.w3.org/2000/svg" version="1.1" xmlns:xlink="http://www.w3.org/1999/xlink" xmlns:svgjs="http://svgjs.com/svgjs" width="1400" height="787.5" preserveAspectRatio="none" viewBox="0 0 1400 787.5"><g mask="url(&quot;#SvgjsMask1032&quot;)" fill="none"><rect width="1400" height="787.5" x="0" y="0" fill="rgba(20, 20, 20, 1)"></rect><path d="M634.02 125.09L665.92 125.09L665.92 156.99L634.02 156.99z" fill="rgba(251, 175, 0, 1)"></path><path d="M112.24 19.22 a61.25 61.25 0 1 0 122.5 0 a61.25 61.25 0 1 0 -122.5 0z" stroke="rgba(207, 93, 93, 1)"></path><path d="M31.74 451.7L55.24 451.7L55.24 475.2L31.74 475.2z" stroke="rgba(160, 108, 213, 1)"></path><path d="M491.11 245.15 a45.02 45.02 0 1 0 90.04 0 a45.02 45.02 0 1 0 -90.04 0z" fill="rgba(160, 108, 213, 1)"></path><path d="M1087.37 761.55L1131.85 761.55L1131.85 767.78L1087.37 767.78z" fill="rgba(160, 108, 213, 1)"></path><path d="M-57.49 273.51 a72.56 72.56 0 1 0 145.12 0 a72.56 72.56 0 1 0 -145.12 0z" fill="rgba(251, 175, 0, 1)"></path><path d="M167.2 471.32L223.1 471.32L223.1 514.8L167.2 514.8z" fill="rgba(207, 93, 93, 1)"></path><path d="M750.23 120.39 a48.33 48.33 0 1 0 96.66 0 a48.33 48.33 0 1 0 -96.66 0z" stroke="rgba(207, 93, 93, 1)"></path><path d="M675.42 193.44 a77.7 77.7 0 1 0 155.4 0 a77.7 77.7 0 1 0 -155.4 0z" stroke="rgba(160, 108, 213, 1)"></path><path d="M831.2 615.97a18.96 18.96 0 1 0 20.39-31.98z" fill="rgba(251, 175, 0, 1)"></path><path d="M453.6 268.5L487.35 268.5L487.35 285.45L453.6 285.45z" fill="rgba(160, 108, 213, 1)"></path><path d="M534.38 764.52 a22.31 22.31 0 1 0 44.62 0 a22.31 22.31 0 1 0 -44.62 0z" stroke="rgba(160, 108, 213, 1)"></path><path d="M988 189.81 a64.38 64.38 0 1 0 128.76 0 a64.38 64.38 0 1 0 -128.76 0z" stroke="rgba(251, 175, 0, 1)"></path><path d="M762.66 446.42 a75.51 75.51 0 1 0 151.02 0 a75.51 75.51 0 1 0 -151.02 0z" stroke="rgba(160, 108, 213, 1)"></path><path d="M221.75 622.57 a45.47 45.47 0 1 0 90.94 0 a45.47 45.47 0 1 0 -90.94 0z" stroke="rgba(251, 175, 0, 1)"></path><path d="M1373.44 442.84L1449.2 442.84L1449.2 518.6L1373.44 518.6z" fill="rgba(251, 175, 0, 1)"></path><path d="M869.17 99.55L886.12 99.55L886.12 116.5L869.17 116.5z" fill="rgba(207, 93, 93, 1)"></path><path d="M680.85 26.83a75.01 75.01 0 1 0-144.54-40.17z" stroke="rgba(160, 108, 213, 1)"></path><path d="M396.7 675.78L453.75 675.78L453.75 694.18L396.7 694.18z" stroke="rgba(251, 175, 0, 1)"></path><path d="M390.85 677.09a6.04 6.04 0 1 0-12 1.34z" fill="rgba(207, 93, 93, 1)"></path><path d="M281.64 111.85L292.59 111.85L292.59 124.08L281.64 124.08z" fill="rgba(207, 93, 93, 1)"></path><path d="M973.23 179.92L991.77 179.92L991.77 200.94L973.23 200.94z" fill="rgba(207, 93, 93, 1)"></path><path d="M182.2 197.47a50.19 50.19 0 1 0 7.63 100.09z" stroke="rgba(251, 175, 0, 1)"></path></g><defs><mask id="SvgjsMask1032"><rect width="1400" height="787.5" fill="#ffffff"></rect></mask></defs></svg>