<svg xmlns="http://www.w3.org/2000/svg" version="1.1" xmlns:xlink="http://www.w3.org/1999/xlink" xmlns:svgjs="http://svgjs.com/svgjs" width="1400" height="787.5" preserveAspectRatio="none" viewBox="0 0 1400 787.5"><g mask="url(&quot;#SvgjsMask1034&quot;)" fill="none"><rect width="1400" height="787.5" x="0" y="0" fill="rgba(20, 20, 20, 1)"></rect><path d="M657.68 532.63a7.81 7.81 0 1 0 7.53-13.69z" fill="rgba(207, 93, 93, 1)"></path><path d="M374.26 371.21L400.32 371.21L400.32 402.48L374.26 402.48z" stroke="rgba(207, 93, 93, 1)"></path><path d="M1429.88 196.23a77.68 77.68 0 1 0-152.71-28.59z" stroke="rgba(160, 108, 213, 1)"></path><path d="M687.56 340.72 a54.69 54.69 0 1 0 109.38 0 a54.69 54.69 0 1 0 -109.38 0z" stroke="rgba(251, 175, 0, 1)"></path><path d="M701.75 736.55 a43.47 43.47 0 1 0 86.94 0 a43.47 43.47 0 1 0 -86.94 0z" stroke="rgba(160, 108, 213, 1)"></path><path d="M1271.82 481.82L1292.76 481.82L1292.76 502.76L1271.82 502.76z" fill="rgba(207, 93, 93, 1)"></path><path d="M534.96 580.81a17.14 17.14 0 1 0 15.29-30.68z" fill="rgba(207, 93, 93, 1)"></path><path d="M74.25 391.5a17.3 17.3 0 1 0 27.85-20.53z" stroke="rgba(160, 108, 213, 1)"></path><path d="M669.49 783.13 a7.49 7.49 0 1 0 14.98 0 a7.49 7.49 0 1 0 -14.98 0z" stroke="rgba(207, 93, 93, 1)"></path><path d="M276.82 402.02L322.53 402.02L322.53 447.73L276.82 447.73z" stroke="rgba(207, 93, 93, 1)"></path><path d="M684.99 578.33L759.67 578.33L759.67 653.01L684.99 653.01z" stroke="rgba(160, 108, 213, 1)"></path><path d="M523.74 664.42 a13.6 13.6 0 1 0 27.2 0 a13.6 13.6 0 1 0 -27.2 0z" fill="rgba(251, 175, 0, 1)"></path><path d="M859.14 385.95a44.89 44.89 0 1 0 89.76-2.24z" stroke="rgba(207, 93, 93, 1)"></path><path d="M730.03 715.51L773.48 715.51L773.48 758.96L730.03 758.96z" stroke="rgba(160, 108, 213, 1)"></path><path d="M907.27 411.21a71.25 71.25 0 1 0-44.21 135.47z" fill="rgba(160, 108, 213, 1)"></path><path d="M135.01 473.33 a13.19 13.19 0 1 0 26.38 0 a13.19 13.19 0 1 0 -26.38 0z" stroke="rgba(251, 175, 0, 1)"></path><path d="M674.49 296.69 a25.07 25.07 0 1 0 50.14 0 a25.07 25.07 0 1 0 -50.14 0z" stroke="rgba(207, 93, 93, 1)"></path><path d="M907.96 136.25a29.11 29.11 0 1 0-38.88 43.33z" stroke="rgba(160, 108, 213, 1)"></path><path d="M1362.95 745.82L1403.83 745.82L1403.83 797.67L1362.95 797.67z" fill="rgba(160, 108, 213, 1)"></path><path d="M677.39 124.46L736.23 124.46L736.23 193.59L677.39 193.59z" stroke="rgba(207, 93, 93, 1)"></path><path d="M438.84 397.29a56.87 56.87 0 1 0-80.11-80.74z" fill="rgba(160, 108, 213, 1)"></path><path d="M708.23 502.6L758.57 502.6L758.57 552.94L708.23 552.94z" stroke="rgba(160, 108, 213, 1)"></path><path d="M1142.57 646.74L1204.21 646.74L1204.21 656.36L1142.57 656.36z" stroke="rgba(207, 93, 93, 1)"></path></g><defs><mask id="SvgjsMask1034"><rect width="1400" height="787.5" fill="#ffffff"></rect></mask></defs></svg>