<svg xmlns="http://www.w3.org/2000/svg" version="1.1" xmlns:xlink="http://www.w3.org/1999/xlink" xmlns:svgjs="http://svgjs.com/svgjs" width="1400" height="787.5" preserveAspectRatio="none" viewBox="0 0 1400 787.5"><g mask="url(&quot;#SvgjsMask1035&quot;)" fill="none"><rect width="1400" height="787.5" x="0" y="0" fill="rgba(20, 20, 20, 1)"></rect><path d="M589.36 701.51L646.02 701.51L646.02 758.17L589.36 758.17z" fill="rgba(207, 93, 93, 1)"></path><path d="M659.92 615.15L682.61 615.15L682.61 637.84L659.92 637.84z" stroke="rgba(160, 108, 213, 1)"></path><path d="M109.47 467.31a12.35 12.35 0 1 0-23.27 8.28z" stroke="rgba(251, 175, 0, 1)"></path><path d="M1068.23 758.06 a59.6 59.6 0 1 0 119.2 0 a59.6 59.6 0 1 0 -119.2 0z" stroke="rgba(160, 108, 213, 1)"></path><path d="M392.45 115.4a70.84 70.84 0 1 0-141.58 5.35z" stroke="rgba(207, 93, 93, 1)"></path><path d="M114.37 232.32L182.92 232.32L182.92 292.67L114.37 292.67z" stroke="rgba(251, 175, 0, 1)"></path><path d="M898.87 714.94 a26.73 26.73 0 1 0 53.46 0 a26.73 26.73 0 1 0 -53.46 0z" fill="rgba(207, 93, 93, 1)"></path><path d="M348.19 518.84L355.09 518.84L355.09 569.16L348.19 569.16z" stroke="rgba(207, 93, 93, 1)"></path><path d="M733 42.35 a3.96 3.96 0 1 0 7.92 0 a3.96 3.96 0 1 0 -7.92 0z" fill="rgba(251, 175, 0, 1)"></path><path d="M50.95 245.46L121.38 245.46L121.38 281.9L50.95 281.9z" stroke="rgba(160, 108, 213, 1)"></path><path d="M968.19 158.7L1037.67 158.7L1037.67 159.25L968.19 159.25z" stroke="rgba(160, 108, 213, 1)"></path><path d="M271.3 125.24 a53.98 53.98 0 1 0 107.96 0 a53.98 53.98 0 1 0 -107.96 0z" stroke="rgba(160, 108, 213, 1)"></path><path d="M970.68 708.77 a49.55 49.55 0 1 0 99.1 0 a49.55 49.55 0 1 0 -99.1 0z" fill="rgba(160, 108, 213, 1)"></path><path d="M771.51 429.48 a76.16 76.16 0 1 0 152.32 0 a76.16 76.16 0 1 0 -152.32 0z" stroke="rgba(207, 93, 93, 1)"></path><path d="M378.4 425.72L436.66 425.72L436.66 484.82L378.4 484.82z" fill="rgba(160, 108, 213, 1)"></path><path d="M1224.24 585.22 a21.52 21.52 0 1 0 43.04 0 a21.52 21.52 0 1 0 -43.04 0z" fill="rgba(160, 108, 213, 1)"></path><path d="M474.4 418.15L519.44 418.15L519.44 463.19L474.4 463.19z" stroke="rgba(251, 175, 0, 1)"></path><path d="M1050.99 552L1078.98 552L1078.98 579.99L1050.99 579.99z" stroke="rgba(251, 175, 0, 1)"></path><path d="M388.08 727.45 a76.87 76.87 0 1 0 153.74 0 a76.87 76.87 0 1 0 -153.74 0z" stroke="rgba(251, 175, 0, 1)"></path><path d="M373.74 135.52 a59.37 59.37 0 1 0 118.74 0 a59.37 59.37 0 1 0 -118.74 0z" fill="rgba(251, 175, 0, 1)"></path><path d="M647.98 649.53 a22.97 22.97 0 1 0 45.94 0 a22.97 22.97 0 1 0 -45.94 0z" fill="rgba(207, 93, 93, 1)"></path><path d="M969.38 531.16 a20.37 20.37 0 1 0 40.74 0 a20.37 20.37 0 1 0 -40.74 0z" stroke="rgba(207, 93, 93, 1)"></path><path d="M429.95 644.54L482.84 644.54L482.84 697.43L429.95 697.43z" fill="rgba(251, 175, 0, 1)"></path></g><defs><mask id="SvgjsMask1035"><rect width="1400" height="787.5" fill="#ffffff"></rect></mask></defs></svg>