<svg xmlns="http://www.w3.org/2000/svg" version="1.1" xmlns:xlink="http://www.w3.org/1999/xlink" xmlns:svgjs="http://svgjs.com/svgjs" width="1400" height="787.5" preserveAspectRatio="none" viewBox="0 0 1400 787.5"><g mask="url(&quot;#SvgjsMask1036&quot;)" fill="none"><rect width="1400" height="787.5" x="0" y="0" fill="rgba(20, 20, 20, 1)"></rect><path d="M821.3 621.09L861.91 621.09L861.91 661.7L821.3 661.7z" fill="rgba(160, 108, 213, 1)"></path><path d="M52.55 157.4L75.77 157.4L75.77 179.01L52.55 179.01z" stroke="rgba(207, 93, 93, 1)"></path><path d="M713.24 100.85L757.97 100.85L757.97 145.58L713.24 145.58z" fill="rgba(207, 93, 93, 1)"></path><path d="M335.24 426.87L342.25 426.87L342.25 433.88L335.24 433.88z" stroke="rgba(160, 108, 213, 1)"></path><path d="M249.5 228.1L274.63 228.1L274.63 268.7L249.5 268.7z" stroke="rgba(251, 175, 0, 1)"></path><path d="M916.11 189.17L929.17 189.17L929.17 228.4L916.11 228.4z" stroke="rgba(251, 175, 0, 1)"></path><path d="M976.42 88.28 a46.3 46.3 0 1 0 92.6 0 a46.3 46.3 0 1 0 -92.6 0z" fill="rgba(207, 93, 93, 1)"></path><path d="M439.54 463.29L442.62 463.29L442.62 466.37L439.54 466.37z" stroke="rgba(251, 175, 0, 1)"></path><path d="M599.82 319.05L615.89 319.05L615.89 326.99L599.82 326.99z" fill="rgba(251, 175, 0, 1)"></path><path d="M1191.79 37.18L1211.43 37.18L1211.43 56.82L1191.79 56.82z" stroke="rgba(251, 175, 0, 1)"></path><path d="M609.79 707.53L623.35 707.53L623.35 721.09L609.79 721.09z" stroke="rgba(251, 175, 0, 1)"></path><path d="M1049.61 438.68L1116.21 438.68L1116.21 505.28L1049.61 505.28z" stroke="rgba(251, 175, 0, 1)"></path><path d="M490.22 689.44L558.81 689.44L558.81 758.03L490.22 758.03z" fill="rgba(207, 93, 93, 1)"></path><path d="M108.56 332.73L140.18 332.73L140.18 404.35L108.56 404.35z" stroke="rgba(251, 175, 0, 1)"></path><path d="M73.14 666.36L151.51 666.36L151.51 744.73L73.14 744.73z" stroke="rgba(251, 175, 0, 1)"></path><path d="M970.25 496.46L978.93 496.46L978.93 505.14L970.25 505.14z" stroke="rgba(160, 108, 213, 1)"></path><path d="M839.41 352.53a25.32 25.32 0 1 0-39.46 31.74z" stroke="rgba(207, 93, 93, 1)"></path><path d="M823.78 324.03L869.25 324.03L869.25 375.69L823.78 375.69z" fill="rgba(160, 108, 213, 1)"></path><path d="M1053.21 780.22a3.39 3.39 0 1 0-4.2-5.32z" fill="rgba(251, 175, 0, 1)"></path><path d="M155.72 574.01a42 42 0 1 0 18.31-81.98z" stroke="rgba(207, 93, 93, 1)"></path><path d="M221.39 429.61L254.84 429.61L254.84 461.75L221.39 461.75z" fill="rgba(207, 93, 93, 1)"></path><path d="M662.38-18.95a43.55 43.55 0 1 0-19.63 84.86z" stroke="rgba(207, 93, 93, 1)"></path><path d="M1359.65 715.68a41.86 41.86 0 1 0 80.44 23.2z" fill="rgba(251, 175, 0, 1)"></path></g><defs><mask id="SvgjsMask1036"><rect width="1400" height="787.5" fill="#ffffff"></rect></mask></defs></svg>